<?xml version="1.0" encoding="utf-8"?>
<!-- Generator: Adobe Illustrator 20.0.0, SVG Export Plug-In . SVG Version: 6.00 Build 0)  -->
<svg version="1.1" id="Layer_1" xmlns="http://www.w3.org/2000/svg" xmlns:xlink="http://www.w3.org/1999/xlink" x="0px" y="0px"
	 viewBox="0 0 138.9 70.4" style="enable-background:new 0 0 138.9 70.4;" xml:space="preserve">
<style type="text/css">
	.st0{fill:#E8E7ED;}
</style>
<path class="st0" d="M96.3,37.6c0-4.4-3.5-7.9-7.8-7.9c-2,0-3.9,0.8-5.3,2c-1.5-3.2-4.8-5.4-8.6-5.4c-1.7,0-3.4,0.5-4.8,1.3
	c-2-4.5-6.6-7.7-11.9-7.7c-7.2,0-13,5.8-13,13c0,1.1,0.2,2.2,0.4,3.2c-3.1,0.9-5.4,3.7-5.4,7.1c0,4.1,3.3,7.4,7.4,7.4h44.3
	c4.1,0,7.4-3.3,7.4-7.4C98.9,41,97.9,39,96.3,37.6L96.3,37.6z"/>
</svg>
