<?xml version="1.0" encoding="utf-8"?>
<!-- Generator: Adobe Illustrator 20.0.0, SVG Export Plug-In . SVG Version: 6.00 Build 0)  -->
<svg version="1.1" id="Layer_1" xmlns="http://www.w3.org/2000/svg" xmlns:xlink="http://www.w3.org/1999/xlink" x="0px" y="0px"
	 viewBox="0 0 612 792" style="enable-background:new 0 0 612 792;" xml:space="preserve">
<style type="text/css">
	.st0{display:none;fill:#50DAC4;}
	.st1{fill:#FFFFFF;}
	.st2{fill:#CDDCF0;}
	.st3{fill:#264C78;}
	.st4{fill:#ACB7C8;}
	.st5{fill:#C64047;}
	.st6{fill:#A4353B;}
	.st7{fill:#3A71B2;}
	.st8{fill:#FDDA5F;}
	.st9{fill:#7BC24D;}
	.st10{fill:#D3B74E;}
	.st11{fill:#5886C5;}
	.st12{fill:#5B986C;}
</style>
<circle class="st0" cx="371.1" cy="431.4" r="65"/>
<g id="RUhiAY.tif">
	<path class="st1" d="M393.2,473.5"/>
	<path class="st1" d="M349.9,473.1"/>
	<path class="st1" d="M417.8,473c2.5,1.6,1.7,4.2,1.2,6.1c-0.5,2-2.8,0.8-4.2,1c-1.6,0.2-3.2,0.2-4.8,0.2c-26.6,0-53.2,0-79.7,0
		c-9-0.5-9-0.5-9.6-9.6c0-26.6,0-53.1,0-79.7c0.1-1.6,0-3.2,0.2-4.8c0.2-1.5-1-3.8,1-4.2c2-0.5,4.5-1.3,6.1,1.2
		c0,17.1,0,34.2,0,51.3c0,2.2,0,4.4,0,6.6c-0.1,9.4-0.2,18.9-0.2,28.3c0,6.7,4.7,3.7,8.1,3.8"/>
</g>
<g id="flat-icon-144">
	<path class="st2" d="M357.9,436.6c-13-0.1-16.9,0.4-21.2,4.6c-1.3,1.3-1.3,3.4,0,4.6c1.3,1.3,3.4,1.3,4.6,0c2.4-2.4,5-2.8,16.6-2.7
		C357.9,440.9,357.9,438.8,357.9,436.6z"/>
	<g>
		<path class="st3" d="M364.5,443.2h3.3c0-2-0.1-4.2-0.1-6.6h-3.3C364.4,438.9,364.5,440.9,364.5,443.2z"/>
		<path class="st4" d="M357.9,436.6c-1.1,0-2.3,0-3.3,0v0.3c0,2.4,0.1,4.4,0.1,6.2c1,0,2.1,0,3.3,0
			C357.9,440.8,357.9,438.9,357.9,436.6z"/>
	</g>
	<path class="st5" d="M357.9,448.4l-8.5-8.5c-1.3-1.3-3.4-1.3-4.6,0s-1.3,3.4,0,4.6l12.3,12.3C357.7,455.1,357.9,452.6,357.9,448.4z
		"/>
	<path class="st6" d="M357.9,448.4L357.9,448.4c-0.8-0.8-2.5-0.4-3.8,0.9s-1.7,3-0.9,3.7l3.9,3.9
		C357.7,455.1,357.9,452.6,357.9,448.4z"/>
	<g>
		<path class="st7" d="M399.1,408.6c11.5,0.1,17-0.4,21.2-4.6c1.3-1.3,1.3-3.4,0-4.6c-1.3-1.3-3.4-1.3-4.6,0
			c-2.4,2.4-6.1,2.8-16.6,2.7C399.1,404,399.1,406.2,399.1,408.6z"/>
		<path class="st7" d="M369.2,413.3c5.6-5.6,15.7-5,23.3-4.8c0-2.4-0.1-4.6-0.1-6.6c-8.1-0.1-20.2-0.9-27.9,6.8
			c-13.3,13.3-1.9,43.6-9.3,51.1c-1.3,1.3-1.3,3.4,0,4.6s3.4,1.3,4.6,0C370.4,453.9,358.4,424.2,369.2,413.3z"/>
	</g>
	<path class="st8" d="M399.1,396.7l8.4,8.4c1.3,1.3,3.4,1.3,4.6,0s1.3-3.4,0-4.6L400,388.3C399.4,390.2,399.1,392.7,399.1,396.7z"/>
	<path class="st9" d="M390.6,427.5c0.9-2,1.5-4.4,1.8-7.3c-4.3-4.2-8.5-8.5-13.8-13.8c-1.3-1.3-3.4-1.3-4.6,0s-1.3,3.4,0,4.6
		c6.1,6.1,10.9,10.9,16,16C390.2,427.3,390.4,427.4,390.6,427.5z"/>
	<path class="st10" d="M404.1,392.5l-4.1-4.1c-0.6,1.8-0.9,4.4-0.9,8.3l0.4,0.4c-0.8-0.8-0.4-2.5,0.9-3.7
		C401.7,392.1,403.4,391.7,404.1,392.5z"/>
	<g>
		<path class="st3" d="M399.1,408.6c1.1,0,2.3,0,3.3,0V408c0-2.3-0.1-4.2-0.1-6c-1,0-2.1,0-3.3,0C399.1,404,399.1,406.2,399.1,408.6
			z"/>
		<path class="st3" d="M392.5,401.9l-3.3-0.1c0,2,0,4.1,0.1,6.4v0.2l3.3,0.1C392.5,406.1,392.5,403.9,392.5,401.9z"/>
	</g>
	<path class="st2" d="M399.2,413.8c-0.3-19.9-0.6-25.2,2.5-28.4c1.3-1.3,1.3-3.4,0-4.6c-1.3-1.3-3.4-1.3-4.6,0
		c-5.4,5.4-4.8,12.7-4.4,33.1c0.1,8.8-1.4,14.5-4.9,17.9c-5.6,5.6-15.6,4.9-23.3,4.8c0,2.3,0.1,4.2,0.1,6.6
		c8.2,0.1,20.2,0.9,27.9-6.7C397.2,431.7,399.4,424.5,399.2,413.8z"/>
	<path class="st11" d="M364.6,424.9c1.7,1.7,12.6,12.6,14.1,14.1c1.3,1.3,3.4,1.3,4.6,0c1.3-1.3,1.3-3.4,0-4.6l-16.9-16.9
		C365.6,419.5,364.9,421.9,364.6,424.9z"/>
	<path class="st4" d="M364.4,436.7c0,0,0.1,4.3,0.1,6.6l9,0.1c0-2-0.1-4.2-0.1-6.6C372.3,436.7,365.5,436.7,364.4,436.7z"/>
	<path class="st12" d="M387.8,424.9l2.7,2.7c0.9-2,1.5-4.5,1.8-7.4c-0.8-0.7-2.4-0.3-3.7,0.9C387.5,422.4,387,424.1,387.8,424.9z"/>
	<path class="st3" d="M366.2,421.8c1.3-1.3,3-1.7,3.7-0.9l-3.4-3.4c-0.9,2-1.5,4.5-1.9,7.4l0.7,0.7
		C364.5,424.8,364.9,423.1,366.2,421.8z"/>
</g>
</svg>
