<?xml version="1.0" encoding="UTF-8" standalone="no"?>
<svg width="29px" height="29px" viewBox="0 0 29 29" version="1.1" xmlns="http://www.w3.org/2000/svg" xmlns:xlink="http://www.w3.org/1999/xlink" xmlns:sketch="http://www.bohemiancoding.com/sketch/ns">
    <!-- Generator: Sketch 3.3.3 (12072) - http://www.bohemiancoding.com/sketch -->
    <title>Artboard 1 Copy 2</title>
    <desc>Created with Sketch.</desc>
    <defs></defs>
    <g id="Page-1" stroke="none" stroke-width="1" fill="none" fill-rule="evenodd" sketch:type="MSPage">
        <g id="Artboard-1-Copy-2" sketch:type="MSArtboardGroup">
            <g id="Rectangle-74-Copy-2-+-linked-in" sketch:type="MSLayerGroup" transform="translate(1.000000, 1.000000)">
                <rect id="Rectangle-74-Copy-2" fill="#EBEEF0" sketch:type="MSShapeGroup" x="0" y="0" width="27" height="27" rx="2"></rect>
                <g id="linked-in" transform="translate(7.000000, 7.000000)" fill="#BEC4C7" sketch:type="MSShapeGroup">
                    <path d="M13,12.0685448 C13,12.583777 12.5695364,13 12.0404048,13 L0.961529876,13 C0.428528908,13 0,12.583777 0,12.0685448 L0,0.931455191 C0,0.417184265 0.428528908,0 0.961529876,0 L12.0404048,0 C12.5695364,0 13,0.417184265 13,0.931455191 L13,12.0685448 L13,12.0685448 Z M1.99655256,5.02445072 L3.95901744,5.02445072 L3.95901744,10.9263392 L1.99655256,10.9263392 L1.99655256,5.02445072 Z M2.99082945,2.18076084 C2.31928189,2.18076084 1.88156816,2.62233959 1.88156816,3.19919412 C1.88156816,3.76638608 2.30768683,4.2195599 2.96474055,4.2195599 L2.97730187,4.2195599 C3.66237701,4.2195599 4.08752942,3.76638608 4.08752942,3.19919412 C4.07400184,2.62233959 3.66237701,2.18076084 2.99082945,2.18076084 Z M8.77290224,4.88724244 C7.72934632,4.88724244 7.26361118,5.46216445 7.00465471,5.86509298 L7.00465471,5.88151933 L6.9940259,5.88151933 C6.99595841,5.87572179 7.00078969,5.86992426 7.00465471,5.86509298 L7.00465471,5.02541697 L5.04412234,5.02541697 C5.06827873,5.57908136 5.04412234,10.9263392 5.04412234,10.9263392 L7.00465471,10.9263392 L7.00465471,7.63044174 C7.00465471,7.4555495 7.01624978,7.279691 7.07132634,7.15214528 C7.21239964,6.79946203 7.53512897,6.43518371 8.07719829,6.43518371 C8.78642981,6.43518371 9.06954267,6.97628678 9.06954267,7.76958253 L9.06954267,10.9263392 L11.0320075,10.9263392 L11.0320075,7.544445 C11.0320075,5.73078347 10.0638196,4.88724244 8.77290224,4.88724244 Z" id="Fill-4"></path>
                </g>
            </g>
        </g>
    </g>
</svg>