<?xml version="1.0" encoding="utf-8"?>
<!-- Generator: Adobe Illustrator 20.0.0, SVG Export Plug-In . SVG Version: 6.00 Build 0)  -->
<svg version="1.1" id="Layer_1" xmlns="http://www.w3.org/2000/svg" xmlns:xlink="http://www.w3.org/1999/xlink" x="0px" y="0px"
	 viewBox="0 0 661.1 571.7" style="enable-background:new 0 0 661.1 571.7;" xml:space="preserve">
<style type="text/css">
	.st0{fill:#E7B944;}
	.st1{fill:#FFDD15;}
	.st2{fill:#F68F1E;}
	.st3{fill:#C23C27;}
	.st4{fill:#404041;}
	.st5{fill:#FFFFFF;}
	.st6{fill:#D99E30;}
	.st7{fill:#B1D9A9;}
	.st8{fill:#32401B;}
	.st9{fill:#BED63A;}
	.st10{fill:#524E43;}
	.st11{fill:#97C13C;}
	.st12{fill:#F1F1F2;}
	.st13{fill:#53B964;}
	.st14{fill:#405291;}
	.st15{fill:#89C540;}
	.st16{fill:#409083;}
	.st17{fill:#C6BD32;}
	.st18{fill:#389144;}
	.st19{fill:#4CB648;}
	.st20{fill:#385D91;}
	.st21{fill:#F16C4F;}
	.st22{fill:#EF4D27;}
</style>
<path class="st0" d="M96.9,78.8l6.9,25.1c0.4,1.5-1,3-3.1,3.3s-3.9-0.8-3.9-2.4l-0.1-26H96.9z"/>
<path class="st0" d="M85.9,81.8L99,104.2c0.8,1.3-0.2,3.2-2.2,4c-1.9,0.8-4,0.2-4.4-1.3l-6.8-25.1C85.6,81.8,85.9,81.8,85.9,81.8z"
	/>
<path class="st0" d="M76.1,87.5l18.5,18.3c1.1,1.1,0.6,3.2-1,4.5c-1.7,1.3-3.8,1.2-4.6-0.1L75.8,87.7C75.8,87.7,76.1,87.5,76.1,87.5
	z"/>
<path class="st0" d="M68.1,95.5l22.6,12.9c1.4,0.8,1.4,2.9,0.1,4.6s-3.3,2.2-4.4,1.1L67.9,95.8L68.1,95.5z"/>
<path class="st0" d="M62.4,105.4l25.1,6.6c1.5,0.4,2.1,2.4,1.3,4.4c-0.8,2-2.7,3-4,2.2l-22.6-12.9C62.2,105.7,62.4,105.4,62.4,105.4
	z"/>
<path class="st0" d="M59.5,116.4l26-0.1c1.6,0,2.7,1.8,2.4,3.9c-0.3,2.1-1.8,3.6-3.3,3.2l-25.1-6.6V116.4z"/>
<path class="st0" d="M59.5,127.7l25.1-6.9c1.5-0.4,3,1,3.3,3.1s-0.8,3.9-2.4,3.9l-26,0.1V127.7z"/>
<path class="st0" d="M62.4,138.7l22.4-13.1c1.3-0.8,3.2,0.2,4,2.2c0.8,1.9,0.2,4-1.3,4.4L62.6,139C62.6,139,62.4,138.7,62.4,138.7z"
	/>
<path class="st0" d="M68.1,148.5L86.4,130c1.1-1.1,3.2-0.6,4.5,1c1.3,1.7,1.2,3.8-0.1,4.6l-22.4,13.1L68.1,148.5L68.1,148.5z"/>
<path class="st0" d="M76.2,156.5L89,134c0.8-1.4,2.9-1.4,4.6-0.1c1.7,1.3,2.2,3.3,1.1,4.4l-18.3,18.4L76.2,156.5L76.2,156.5z"/>
<path class="st0" d="M86,162.2l6.6-25.1c0.4-1.5,2.4-2.1,4.4-1.3s3,2.7,2.2,4l-12.9,22.6C86.3,162.4,86,162.2,86,162.2z"/>
<path class="st0" d="M97,165.1l-0.1-26c0-1.6,1.8-2.7,3.9-2.4s3.6,1.8,3.2,3.3l-6.6,25.1L97,165.1L97,165.1z"/>
<path class="st0" d="M108.4,165.1l-6.9-25.1c-0.4-1.5,1-3,3.1-3.3s3.9,0.8,3.9,2.4l0.1,26L108.4,165.1L108.4,165.1z"/>
<path class="st0" d="M119.3,162.2l-13.1-22.4c-0.8-1.3,0.2-3.2,2.2-4c1.9-0.8,4-0.2,4.4,1.3l6.8,25.1L119.3,162.2L119.3,162.2z"/>
<path class="st0" d="M129.2,156.5l-18.5-18.3c-1.1-1.1-0.6-3.2,1-4.5c1.7-1.3,3.8-1.2,4.6,0.1l13.1,22.4L129.2,156.5z"/>
<path class="st0" d="M137.2,148.4l-22.6-12.9c-1.4-0.8-1.4-2.9-0.1-4.6c1.3-1.7,3.3-2.2,4.4-1.1l18.4,18.3L137.2,148.4z"/>
<path class="st0" d="M142.9,138.6l-25.1-6.6c-1.5-0.4-2.1-2.4-1.3-4.4c0.8-2,2.7-3,4-2.2l22.6,12.9L142.9,138.6z"/>
<path class="st0" d="M145.8,127.6l-26,0.1c-1.6,0-2.7-1.8-2.4-3.9c0.3-2.1,1.8-3.6,3.3-3.2l25.1,6.6V127.6z"/>
<path class="st0" d="M145.8,116.2l-25.1,6.9c-1.5,0.4-3-1-3.3-3.1s0.8-3.9,2.4-3.9l26-0.1V116.2z"/>
<path class="st0" d="M142.8,105.3l-22.4,13.1c-1.3,0.8-3.2-0.2-4-2.2c-0.8-1.9-0.2-4,1.3-4.4l25.1-6.8V105.3z"/>
<path class="st0" d="M137.1,95.4l-18.3,18.5c-1.1,1.1-3.2,0.6-4.5-1c-1.3-1.7-1.2-3.8,0.1-4.6l22.4-13.1L137.1,95.4z"/>
<path class="st0" d="M129.1,87.4L116.2,110c-0.8,1.4-2.9,1.4-4.6,0.1s-2.2-3.3-1.1-4.4l18.3-18.4C128.8,87.3,129.1,87.4,129.1,87.4z
	"/>
<path class="st0" d="M119.2,81.7l-6.6,25.1c-0.4,1.5-2.4,2.1-4.4,1.3c-2-0.8-3-2.7-2.2-4l13-22.5L119.2,81.7z"/>
<path class="st0" d="M108.2,78.8l0.1,26c0,1.6-1.8,2.7-3.9,2.4c-2.1-0.3-3.6-1.8-3.2-3.3l6.6-25.1H108.2z"/>
<path class="st1" d="M102.8,78.4l3.4,25.7c0.2,1.5-1.4,2.9-3.6,2.9c-2.1,0-3.8-1.3-3.6-2.9l3.4-25.7
	C102.4,78.4,102.8,78.4,102.8,78.4z"/>
<path class="st1" d="M91.5,79.9l10,24c0.6,1.4-0.7,3.2-2.7,3.7s-4-0.3-4.2-1.9L91.2,80L91.5,79.9z"/>
<path class="st1" d="M81,84.2l15.8,20.6c0.9,1.2,0.2,3.2-1.6,4.3c-1.8,1.1-3.9,0.7-4.5-0.7l-9.9-24C80.8,84.4,81,84.2,81,84.2z"/>
<path class="st1" d="M72,91.1l20.6,15.8c1.2,0.9,1,3.1-0.5,4.5c-1.5,1.5-3.6,1.7-4.5,0.5L71.7,91.3C71.7,91.3,72,91.1,72,91.1z"/>
<path class="st1" d="M65,100.1l24,9.9c1.4,0.6,1.8,2.7,0.7,4.5c-1.1,1.8-3,2.6-4.3,1.6l-20.6-15.8C64.8,100.3,65,100.1,65,100.1z"/>
<path class="st1" d="M60.6,110.6l25.8,3.4c1.5,0.2,2.4,2.1,1.9,4.2c-0.5,2-2.3,3.3-3.7,2.7l-24-10C60.6,110.9,60.6,110.6,60.6,110.6
	z"/>
<path class="st1" d="M59.1,121.8l25.7-3.4c1.5-0.2,2.9,1.4,2.9,3.6c0,2.1-1.3,3.8-2.9,3.6l-25.7-3.4
	C59.1,122.2,59.1,121.8,59.1,121.8z"/>
<path class="st1" d="M60.5,133.1l24-10c1.4-0.6,3.2,0.7,3.7,2.7s-0.3,4-1.9,4.2l-25.8,3.4L60.5,133.1L60.5,133.1z"/>
<path class="st1" d="M64.9,143.6l20.6-15.8c1.2-0.9,3.2-0.2,4.3,1.6c1.1,1.8,0.7,3.9-0.7,4.5l-24,9.9
	C65.1,143.8,64.9,143.6,64.9,143.6z"/>
<path class="st1" d="M71.7,152.6L87.5,132c0.9-1.2,3.1-1,4.5,0.5c1.5,1.5,1.7,3.6,0.5,4.5L72,152.9L71.7,152.6L71.7,152.6z"/>
<path class="st1" d="M80.7,159.6l9.9-24c0.6-1.4,2.7-1.8,4.5-0.7s2.6,3,1.6,4.3L81,159.7L80.7,159.6L80.7,159.6z"/>
<path class="st1" d="M91.2,164l3.4-25.8c0.2-1.5,2.1-2.4,4.2-1.9c2,0.5,3.3,2.3,2.7,3.7l-10,24C91.5,164,91.2,164,91.2,164z"/>
<path class="st1" d="M102.5,165.5l-3.4-25.8c-0.2-1.5,1.4-2.9,3.6-2.9c2.1,0,3.8,1.3,3.6,2.9l-3.4,25.8
	C102.9,165.5,102.5,165.5,102.5,165.5z"/>
<path class="st1" d="M113.8,164.1l-10-24c-0.6-1.4,0.7-3.2,2.7-3.7s4,0.3,4.2,1.9L114,164L113.8,164.1z"/>
<path class="st1" d="M124.3,159.7l-15.8-20.6c-0.9-1.2-0.2-3.2,1.6-4.3c1.8-1.1,3.9-0.7,4.5,0.7l9.9,24L124.3,159.7L124.3,159.7z"/>
<path class="st1" d="M133.3,152.9l-20.6-15.8c-1.2-0.9-1-3.1,0.5-4.5c1.5-1.5,3.6-1.7,4.5-0.5l15.8,20.6L133.3,152.9z"/>
<path class="st1" d="M140.3,143.9l-24-9.9c-1.4-0.6-1.8-2.7-0.7-4.5c1.1-1.8,3-2.6,4.3-1.6l20.6,15.8L140.3,143.9L140.3,143.9z"/>
<path class="st1" d="M144.6,133.4l-25.8-3.4c-1.5-0.2-2.4-2.1-1.9-4.2c0.5-2,2.3-3.3,3.7-2.7l24,10V133.4L144.6,133.4z"/>
<path class="st1" d="M146.2,122.1l-25.7,3.4c-1.5,0.2-2.9-1.4-2.9-3.6c0-2.1,1.3-3.8,2.9-3.6l25.7,3.4
	C146.2,121.7,146.2,122.1,146.2,122.1z"/>
<path class="st1" d="M144.7,110.8l-24,10c-1.4,0.6-3.2-0.7-3.7-2.7s0.3-4,1.9-4.2l25.8-3.4C144.7,110.5,144.7,110.8,144.7,110.8z"/>
<path class="st1" d="M140.4,100.3l-20.6,15.8c-1.2,0.9-3.2,0.2-4.3-1.6c-1.1-1.8-0.7-3.9,0.7-4.5l24-9.9L140.4,100.3L140.4,100.3z"
	/>
<path class="st1" d="M133.5,91.3l-15.8,20.6c-0.9,1.2-3.1,1-4.5-0.5c-1.5-1.5-1.7-3.6-0.5-4.5l20.6-15.8
	C133.3,91.1,133.5,91.3,133.5,91.3z"/>
<path class="st1" d="M124.5,84.3l-9.9,24c-0.6,1.4-2.7,1.8-4.5,0.7c-1.8-1.1-2.6-3-1.6-4.3l15.8-20.6
	C124.3,84.1,124.5,84.3,124.5,84.3z"/>
<path class="st1" d="M114,80l-3.4,25.8c-0.2,1.5-2.1,2.4-4.2,1.9c-2-0.5-3.3-2.3-2.7-3.7l10-24C113.7,80,114,80,114,80z"/>
<circle class="st2" cx="102.6" cy="122" r="19.6"/>
<path class="st3" d="M102.6,135.2c-7.3,0-13.2-5.9-13.2-13.2s5.9-13.2,13.2-13.2c7.3,0,13.2,5.9,13.2,13.2
	C115.8,129.2,109.9,135.2,102.6,135.2z"/>
<g>
	<path class="st4" d="M315.4,448.1h-135l46.7-142.8l17-52h7.5l21.1,64.4L315.4,448.1z"/>
	<path class="st5" d="M272.7,317.7c-0.5,0.6-0.8,0.9-0.8,0.9l-14.7-17.1l-12.4,17.1l-11.5-17.1l-6.1,3.8l17-52h7.5L272.7,317.7
		L272.7,317.7z"/>
	<path class="st4" d="M247.9,253.3v194.8h67.5l-42.7-130.4l-21.1-64.4L247.9,253.3z"/>
</g>
<g>
	<path class="st6" d="M35.4,385.8h9.5v61h-9.5V385.8z"/>
	<path class="st7" d="M55.1,427.8H25.2l15-98.1L55.1,427.8z"/>
	<path class="st7" d="M55.1,427.8l-14.9-98.1v98.1H55.1z"/>
</g>
<g>
	<path class="st6" d="M52.6,413.6h5.1v32.9h-5.1V413.6z"/>
	<path class="st7" d="M55.1,437.4c-4,0-7.3-3.3-7.3-7.3v-40.6c0-4,3.3-7.3,7.3-7.3s7.3,3.3,7.3,7.3v40.6
		C62.4,434.1,59.2,437.4,55.1,437.4z"/>
	<path class="st7" d="M55.1,382.2c4,0,7.3,3.3,7.3,7.3v40.6c0,4-3.3,7.3-7.3,7.3V382.2L55.1,382.2z"/>
</g>
<path class="st8" d="M4.5,447.2L129,341.1l118.5,61l138.7-120.4L572,447.2H4.5z"/>
<g>
	<path class="st9" d="M303.6,447.2c0-71,57.6-128.6,128.6-128.6s128.6,57.6,128.6,128.6H303.6z"/>
	<path class="st9" d="M560.8,447.2c0-71-57.6-128.6-128.6-128.6v128.6H560.8z"/>
</g>
<path class="st6" d="M545.6,525.6H30.9c-14.6,0-26.5-11.9-26.5-26.5v-12.2c0-14.6,11.9-26.5,26.5-26.5h514.6
	c14.6,0,26.5,11.9,26.5,26.5v12.2C572,513.7,560.2,525.6,545.6,525.6z"/>
<path class="st10" d="M4.5,460.4h567.6v38.9H4.5V460.4z"/>
<path class="st11" d="M4.5,447.2h567.6v13.2H4.5V447.2z"/>
<g>
	<path class="st12" d="M542.1,447.9H526l4.4-133.6l1.6-66.4h4l1.7,66.3L542.1,447.9z"/>
	<circle class="st12" cx="534" cy="245.2" r="8"/>
</g>
<g>
	<path class="st12" d="M482.1,446.8h-21.7l5.9-181.2l2.2-90h5.5l2.2,89.8L482.1,446.8z"/>
	<circle class="st12" cx="471.2" cy="171.8" r="10.9"/>
</g>
<path class="st8" d="M129,341.1L52.6,446.8H4.5L129,341.1z M386.2,281.7L243.9,446.8l3.6-44.7L386.2,281.7z"/>
<g>
	<path class="st6" d="M160.9,385.8h9.5v61h-9.5V385.8z"/>
	<path class="st13" d="M165.7,431.9c-16.3,0-29.5-13.2-29.5-29.5s13.2-29.5,29.5-29.5V431.9z M165.7,373c16.3,0,29.5,13.2,29.5,29.5
		S182,432,165.7,432V373z"/>
	<path class="st14" d="M165.7,373c16.3,0,29.5,13.2,29.5,29.5S182,432,165.7,432V373z"/>
	<g>
		<path class="st13" d="M165.7,420.9c10.2,0,18.4-8.2,18.4-18.4s-8.2-18.4-18.4-18.4V420.9z"/>
		<path class="st14" d="M165.7,384.1c-10.2,0-18.4,8.2-18.4,18.4s8.2,18.4,18.4,18.4V384.1z"/>
	</g>
</g>
<g>
	<path class="st6" d="M134.6,402.2h7v44.6h-7V402.2z"/>
	<path class="st15" d="M138.1,435.9c-11.9,0-21.6-9.7-21.6-21.6s9.7-21.6,21.6-21.6V435.9z M138.1,392.8c11.9,0,21.6,9.7,21.6,21.6
		S150,436,138.1,436V392.8z"/>
	<path class="st16" d="M138.1,392.8c11.9,0,21.6,9.7,21.6,21.6S150,436,138.1,436V392.8z"/>
	<g>
		<path class="st15" d="M138.1,427.8c7.4,0,13.5-6,13.5-13.5c0-7.4-6-13.5-13.5-13.5V427.8z"/>
		<path class="st16" d="M138.1,400.9c-7.4,0-13.5,6-13.5,13.5c0,7.4,6,13.5,13.5,13.5V400.9z"/>
	</g>
</g>
<g>
	<path class="st6" d="M217.7,385.8h9.5v61h-9.5V385.8z"/>
	<path class="st17" d="M222.5,431.9c-16.3,0-29.5-13.2-29.5-29.5s13.2-29.5,29.5-29.5V431.9z M222.5,373c16.3,0,29.5,13.2,29.5,29.5
		S238.8,432,222.5,432V373z"/>
	<path class="st18" d="M222.5,373c16.3,0,29.5,13.2,29.5,29.5S238.8,432,222.5,432V373z"/>
	<g>
		<path class="st17" d="M222.5,420.9c10.2,0,18.4-8.2,18.4-18.4s-8.2-18.4-18.4-18.4V420.9z"/>
		<path class="st18" d="M222.5,384.1c-10.2,0-18.4,8.2-18.4,18.4s8.2,18.4,18.4,18.4V384.1z"/>
	</g>
</g>
<g>
	<path class="st6" d="M188.1,412.3h5.5v35h-5.5V412.3z"/>
	<path class="st19" d="M190.8,438.7c-9.3,0-16.9-7.6-16.9-16.9s7.6-16.9,16.9-16.9V438.7z M190.8,404.9c9.3,0,16.9,7.6,16.9,16.9
		s-7.6,16.9-16.9,16.9V404.9z"/>
	<path class="st20" d="M190.8,404.9c9.3,0,16.9,7.6,16.9,16.9s-7.6,16.9-16.9,16.9V404.9z"/>
	<g>
		<path class="st19" d="M190.8,432.4c5.8,0,10.6-4.7,10.6-10.6c0-5.8-4.7-10.6-10.6-10.6V432.4z"/>
		<path class="st20" d="M190.8,411.3c-5.8,0-10.6,4.7-10.6,10.6c0,5.8,4.7,10.6,10.6,10.6V411.3z"/>
	</g>
</g>
<g>
	<path class="st21" d="M315.3,307.1h69v139.4h-69V307.1z"/>
	<path class="st22" d="M311.5,301.5h76.7v5.6h-76.7V301.5z"/>
	<path class="st5" d="M322.6,316.7h10.3v11.8h-10.3V316.7z M344.7,316.7H355v11.8h-10.3V316.7z M366.8,316.7h10.3v11.8h-10.3V316.7z
		 M322.6,338.9h10.3v11.8h-10.3V338.9z M344.7,338.9H355v11.8h-10.3V338.9z M366.8,338.9h10.3v11.8h-10.3V338.9z M322.6,361h10.3
		v11.8h-10.3V361z M344.7,361H355v11.8h-10.3V361z M366.8,361h10.3v11.8h-10.3V361z M322.6,383.1h10.3v11.8h-10.3V383.1z
		 M344.7,383.1H355v11.8h-10.3V383.1z M366.8,383.1h10.3v11.8h-10.3V383.1z"/>
</g>
<g>
	<path class="st12" d="M398.9,446.8h-17l4.6-141.3l1.7-70.2h4.3l1.7,70.1L398.9,446.8z"/>
	<circle class="st12" cx="390.4" cy="232.4" r="8.5"/>
</g>
<g>
	<path class="st9" d="M227.9,447c0-8.8,7.2-16,16-16s16,7.2,16,16H227.9z"/>
	<path class="st9" d="M259.9,447c0-8.8-7.2-16-16-16v16H259.9z"/>
</g>
</svg>
