<svg xmlns='http://www.w3.org/2000/svg' width='32' height='32' viewBox='0 0 32 32'>
<path fill="#333333" d="M17.652,5H8.348C6.732,5,5.001,6.562,5.001,8.178v3.097v6.209C5.001,19.1,6.732,20,8.348,20h9.304
			C19.268,20,21,19.1,21,17.484v-6.209V8.178C21,6.562,19.268,5,17.652,5z M18.579,6.996L19,6.994v0.335v2.236l-2.647,0.009
			l-0.009-2.57L18.579,6.996z M10.836,11.275c0.486-0.672,1.274-1.113,2.164-1.113s1.679,0.44,2.164,1.113
			c0.316,0.438,0.506,0.976,0.506,1.556c0,1.471-1.199,2.669-2.67,2.669c-1.472,0-2.67-1.198-2.67-2.669
			C10.33,12.25,10.52,11.713,10.836,11.275z M19,17.484C19,18.286,18.453,19,17.652,19H8.348c-0.802,0-1.347-0.714-1.347-1.516V11
			h2.158c-0.195,1-0.305,1.143-0.305,1.693c0,2.287,1.86,4.216,4.147,4.216c2.287,0,4.147-1.963,4.147-4.25
			c0-0.55-0.111-0.659-0.306-1.659H19V17.484z"/>
<path fill="#333333" d="M24,1c0.505,0,1,0.325,1,0.831v22C25,24.336,24.505,25,24,25H2c-0.505,0-1-0.664-1-1.169v-22
			C1,1.326,1.495,1,2,1H24 M24,0H2C0.895,0,0,0.726,0,1.831v22C0,24.936,0.895,26,2,26h22c1.105,0,2-1.065,2-2.169v-22
			C26,0.726,25.105,0,24,0L24,0z"/>
</svg>
