<svg xmlns='http://www.w3.org/2000/svg' width='40' height='40' viewBox='0 0 40 40'>
<path fill="#333333" d="M20,1.672c10.107,0,18.329,8.222,18.329,18.328c0,10.106-8.222,18.328-18.329,18.328
			C9.893,38.328,1.671,30.106,1.671,20C1.671,9.894,9.893,1.672,20,1.672 M20,0C8.954,0,0,8.953,0,20c0,11.045,8.954,20,20,20
			s20-8.955,20-20C40,8.953,31.046,0,20,0L20,0z"/>
<path fill="#333333" d="M11.691,16.173c0.004,1.097,0.025,2.2,0.031,3.303c0.001,1.186,0.004,2.373,0.004,3.558
				c0,6.643,5.939,8.525,7.077,8.525c1.14,0,5.602,0.108,6.408,0.108c0.807,0,3.119-0.217,3.119-2.596
				c0-2.377-1.641-3.231-2.748-3.231h-4.431c-3.152,0-3.655-1.419-3.655-2.733c0-0.624,0.039-1.653,0.076-2.912h7.403
				c1.109,0,3.22-0.462,3.22-2.523c0-2.058-0.974-3.407-2.282-3.407h-8.249c-0.009-2.971-0.199-5.931-3.053-5.931
				c-1.18,0-2.138,0.492-2.542,1.717c-0.531,1.609-0.39,3.491-0.384,5.166C11.69,15.534,11.691,15.854,11.691,16.173z"/>
</svg>
