<svg xmlns='http://www.w3.org/2000/svg' width='40' height='40' viewBox='0 0 40 40'>
<path fill="#333333" d="M20.002,1.672c10.105,0,18.326,8.222,18.326,18.328c0,10.106-8.221,18.328-18.326,18.328
		C9.895,38.328,1.671,30.106,1.671,20C1.671,9.894,9.895,1.672,20.002,1.672 M20.002,0C8.955,0,0,8.953,0,20
		c0,11.045,8.955,20,20.002,20C31.045,40,40,31.045,40,20C40,8.953,31.045,0,20.002,0L20.002,0z"/>
		<path fill="#333333" d="M16.859,31.667h4.808c0,0,0-6.441,0-11.667h3.711l0.456-4.111h-4.167v-2.556c0-0.908,0.377-0.988,0.833-0.988
			s3.27,0,3.27,0V8.347l-3.862-0.014c-4.287,0-5.048,2.982-5.048,4.89v2.666h-2.692V20h2.692
			C16.859,25.288,16.859,31.667,16.859,31.667z"/>
</svg>
