<svg xmlns='http://www.w3.org/2000/svg' width='32' height='32' viewBox='0 0 32 32'>
<path fill="#333333" d="M24,1c0.505,0,1,0.325,1,0.831v22C25,24.336,24.505,25,24,25H2c-0.505,0-1-0.664-1-1.169v-22
	C1,1.326,1.495,1,2,1H24 M24,0H2C0.895,0,0,0.726,0,1.831v22C0,24.936,0.895,26,2,26h22c1.105,0,2-1.065,2-2.169v-22
	C26,0.726,25.105,0,24,0L24,0z"/>
<path fill="#333333" d="M10,20h4c0,0,0-4,0-7h1.985l0.296-3H14V8.171C14,7.581,13.818,8,14.115,8S16,8,16,8V4.93l-2.614-0.009
	C10.599,4.921,10,6.859,10,8.099V10H9v3h1C10,16,10,20,10,20z"/>
</svg>
