<svg xmlns='http://www.w3.org/2000/svg' width='32' height='32' viewBox='0 0 32 32'>
<path fill="#333333" d="M24,1c0.505,0,1,0.325,1,0.831v22C25,24.336,24.505,25,24,25H2c-0.505,0-1-0.664-1-1.169v-22
			C1,1.325,1.495,1,2,1H24 M24,0H2C0.895,0,0,0.726,0,1.831v22C0,24.935,0.895,26,2,26h22c1.105,0,2-1.065,2-2.169v-22
			C26,0.726,25.105,0,24,0L24,0z"/>
		<path fill="#333333" d="M20.581,6.244c-0.601,0.377-1.268,0.65-1.977,0.798c-0.567-0.638-1.375-1.037-2.271-1.037
			c-1.718,0-3.111,1.469-3.111,3.283c0,0.257,0.028,0.507,0.08,0.748C10.717,9.897,8.425,8.591,6.89,6.605
			C6.622,7.089,6.468,7.654,6.468,8.256c0,1.138,0.329,2.142,1.163,2.731C7.122,10.969,7,10.822,6,10.576c0,0.014,0,0.028,0,0.042
			c0,1.589,1.294,2.916,2.718,3.218c-0.262,0.075-0.425,0.116-0.71,0.116c-0.2,0-0.34-0.021-0.53-0.059
			c0.397,1.304,1.573,2.253,2.934,2.28c-1.065,0.88-2.392,1.405-3.851,1.405c-0.252,0-0.492-0.016-0.736-0.046
			c1.378,0.931,3.017,1.474,4.774,1.474c5.723,0,8.854-5,8.854-9.337c0-0.142-0.001-0.284-0.007-0.425
			c0.607-0.462,1.136-1.04,1.552-1.699c-0.558,0.261-1.157,0.437-1.787,0.517C19.855,7.654,20.348,7.011,20.581,6.244z"/>
</svg>
